<svg width="156" height="45" viewBox="0 0 156 45" fill="none" xmlns="http://www.w3.org/2000/svg">
<path d="M45.1349 34.612C43.3296 35.5339 40.9831 36 38.1045 36C34.4239 36 31.4853 34.8651 29.2893 32.5953C27.0932 30.3154 26 27.2857 26 23.5065C26 19.7272 27.2233 16.3022 29.6704 13.7793C32.1176 11.2564 35.2564 10 39.0874 10C41.4944 10 43.5202 10.3243 45.1349 10.9728V15.7248C43.4399 14.7317 41.5244 14.2352 39.3883 14.2352C36.8711 14.2352 34.8656 15.056 33.3409 16.7073C31.8264 18.359 31.0645 20.5069 31.0645 23.1614C31.0645 25.8159 31.7867 27.8529 33.2306 29.4132C34.6745 30.9736 36.59 31.7537 38.997 31.7537C41.2637 31.7537 43.3093 31.2063 45.1344 30.1121V34.611L45.1349 34.612Z" fill="#1a1f24"/>
<path d="M63.2774 35.5549H49.0464V10.4062H53.8604V31.522H63.2774V35.5549Z" fill="#1a1f24"/>
<path d="M71.3029 10.4062V35.5549H66.4889V10.4062H71.3029Z" fill="#1a1f24"/>
<path d="M110.955 10.4062H105.389L96.1824 35.5549H101.437L108.037 16.0903L114.756 35.5549H120.011L110.955 10.4062Z" fill="#1a1f24"/>
<path d="M79.9448 10.4253H75.1314V35.5639H79.9448V10.4253Z" fill="#1a1f24"/>
<path d="M80.3063 22.4218L89.1622 35.5634H95.3697L85.3611 22.432L94.6277 10.4253H88.8313L81.2597 21.044C80.9487 21.571 80.3169 22.4117 80.3169 22.4117L80.3068 22.4218H80.3063Z" fill="#1a1f24"/>
<path d="M129 33.5194C129 34.8866 127.892 35.9944 126.526 35.9944C125.16 35.9944 124.052 34.8861 124.052 33.5194C124.052 32.1527 125.16 31.0444 126.526 31.0444C127.893 31.0444 129 32.1527 129 33.5194Z" fill="#CFFE25"/>
</svg>
